<?xml version="1.0" encoding="UTF-8" standalone="no"?>
<svg
   height="48px"
   viewBox="0 -960 960 960"
   width="48px"
   fill="#000000"
   version="1.1"
   id="svg5553"
   xmlns="http://www.w3.org/2000/svg"
   xmlns:svg="http://www.w3.org/2000/svg">
  <defs
     id="defs5557" />
  <path
     d="M481-779q108 0 203.5 46T843-601q3 5 2.5 8t-3.5 6q-3 3-7.5 3t-8.5-5q-59-82-150.5-126T481-759q-103 0-193 44.5T138-589q-4 5-7.5 6t-7.5-1q-4-2-4-6.5t2-8.5q62-86 157-133t203-47Zm0 96q136 0 233.5 90T812-371q0 46-34 78t-82 32q-49 0-84-32t-35-78q0-39-28.5-65T481-462q-39 0-68 26t-29 65q0 104 63 173.5T604-100q6 2 7.5 5t.5 7q-1 5-4 7t-8 0q-103-26-169.5-103T364-371q0-47 34.5-79t82.5-32q48 0 82.5 32t34.5 79q0 38 29.5 64t68.5 26q38 0 66.5-26t28.5-64q0-123-91.5-206T481-660q-127 0-218.5 83T171-371q0 24 5.5 62.5T200-221q2 5 0 7.5t-5 4.5q-4 2-8.5 1t-6.5-6q-13-38-20.5-77.5T152-371q0-129 98-220.5T481-683Zm0-197q65 0 127.5 16T728-819q5 2 5.5 6t-1.5 7q-2 3-5.5 5t-8.5 0q-55-27-115-42.5T481-859q-62 0-121 14.5T247-801q-5 2-7.5.5T235-805q-2-2-2-6t3-6q57-31 119.5-47T481-880Zm0 298q92 0 158.5 61T706-371q0 5-2.5 7.5T696-361q-5 0-8-2.5t-3-7.5q0-81-60.5-136T481-562q-83 0-142.5 55T279-371q0 85 29.5 145T396-106q4 4 3.5 7.5T396-92q-2 2-6.5 3.5T381-92q-58-60-90.5-126T258-371q0-89 65.5-150T481-582Zm-1 200q5 0 7.5 3t2.5 8q0 81 59.5 133.5T687-185q8 0 19-1t24-3q5-1 8 1.5t4 5.5q1 4-.5 7t-6.5 4q-18 5-31.5 5.5t-16.5.5q-88 0-152.5-58.5T470-371q0-5 2.5-8t7.5-3Z"
     id="path5551"
     style="fill:#ffffff" />
  <path
     style="display:inline;fill:#28aa58;stroke-width:0.000898865"
     d="m 18.940165,43.244374 c -1.947296,-1.998394 -3.719243,-4.564097 -4.682547,-6.780127 -0.693243,-1.594768 -1.123473,-3.404766 -1.274893,-5.363533 -0.18894,-2.44411 0.04421,-4.145694 0.79953,-5.835092 1.280434,-2.863914 4.240605,-5.27547 7.381676,-6.013613 1.054587,-0.247825 1.598424,-0.304127 2.925639,-0.302883 1.182357,0.0011 1.478773,0.02615 2.373002,0.200451 2.266961,0.441881 4.273526,1.550722 5.987642,3.308811 1.78097,1.826658 2.722644,4.006521 2.809586,6.503854 0.01922,0.551969 0.01432,0.644758 -0.03953,0.74889 -0.166848,0.32265 -0.808882,0.26913 -0.91378,-0.07617 -0.01942,-0.06394 -0.04431,-0.353153 -0.0553,-0.642703 -0.074,-1.949759 -0.732029,-3.719212 -1.950238,-5.244254 -0.333684,-0.41773 -1.100569,-1.174695 -1.574521,-1.554154 -1.536223,-1.229943 -3.190586,-1.93664 -5.216658,-2.22841 -0.522238,-0.07521 -2.517569,-0.06307 -3.038162,0.01848 -1.284404,0.201196 -2.253661,0.507649 -3.264864,1.032263 -0.973296,0.504948 -1.702645,1.042123 -2.554072,1.881106 -1.260103,1.241687 -2.051712,2.61061 -2.450564,4.237745 -0.222798,0.908916 -0.286937,1.722338 -0.246075,3.120753 0.07409,2.535633 0.570003,4.679915 1.52169,6.579688 0.942642,1.881718 2.214046,3.647277 4.006217,5.563309 0.40893,0.437192 0.46763,0.519381 0.469573,0.657477 0.0031,0.222364 -0.323131,0.502721 -0.585033,0.502721 -0.105746,0 -0.162086,-0.04138 -0.428321,-0.314602 z"
     id="path5559"
     transform="matrix(20,0,0,20,0,-960)" />
  <path
     style="fill:#f9fefb;fill-opacity:1;stroke-width:9.76563e-05"
     d=""
     id="path8825"
     transform="matrix(20,0,0,20,0,-960)" />
  <path
     style="fill:#ff0000;fill-opacity:1;stroke-width:0.00078125"
     d="m 6.2442772,18.821013 c -0.05471,-0.01759 -0.138454,-0.07267 -0.1860978,-0.122398 -0.073985,-0.07722 -0.086057,-0.114677 -0.082732,-0.256682 0.00504,-0.21544 0.058991,-0.339051 0.2776145,-0.636112 0.9754848,-1.325471 2.2877361,-2.706659 3.5690556,-3.75655 3.2971075,-2.701594 7.5090085,-4.4332517 11.8185075,-4.8589958 1.566482,-0.1547559 3.282164,-0.1553062 4.84375,-0.00155 3.173707,0.3124809 6.368047,1.3336968 9.140625,2.9222168 2.400237,1.375191 4.594175,3.310363 6.268081,5.528789 0.390766,0.517881 0.43371,0.650681 0.283235,0.875897 -0.167532,0.250751 -0.398594,0.328218 -0.629544,0.211063 -0.110203,-0.0559 -0.209956,-0.164404 -0.483438,-0.525825 -1.0566,-1.396355 -2.225587,-2.599158 -3.532084,-3.634262 -3.029252,-2.399996 -7.032738,-3.99275 -11.078125,-4.407341 -0.926383,-0.09494 -1.623421,-0.120612 -2.78125,-0.102433 -1.115727,0.01752 -1.374466,0.03259 -2.265625,0.131974 -2.79549,0.311759 -5.634772,1.242676 -8.125,2.663948 -2.393029,1.365797 -4.3943703,3.107977 -6.1327789,5.338623 -0.5056446,0.64882 -0.61269,0.723361 -0.9041936,0.629641 z"
     id="path9622"
     transform="matrix(20,0,0,20,0,-960)" />
  <path
     style="fill:#4682ec;fill-opacity:1;stroke-width:0.00078125"
     d="m 29.5625,43.814931 c -2.217422,-0.644268 -3.963304,-1.501552 -5.609375,-2.754382 -1.072019,-0.815918 -2.232533,-1.979781 -3.020583,-3.029299 -1.157717,-1.541839 -1.981885,-3.366281 -2.380075,-5.268716 -0.183548,-0.876936 -0.270062,-1.583082 -0.31848,-2.599492 -0.06461,-1.356367 0.07821,-2.188516 0.532136,-3.100542 0.51631,-1.037358 1.482489,-1.978298 2.6089,-2.540747 1.716162,-0.856929 3.979749,-0.794768 5.645462,0.155031 0.442469,0.252298 0.816508,0.53562 1.208102,0.915095 0.691954,0.670541 1.105022,1.310145 1.382941,2.141377 0.164279,0.491345 0.239938,0.964655 0.278402,1.741653 0.0348,0.702957 0.08623,1.003497 0.246818,1.442201 0.522006,1.426083 1.940573,2.586076 3.60547,2.948271 0.437589,0.0952 1.570866,0.103765 2.006648,0.01517 1.001849,-0.203672 1.78538,-0.63016 2.533507,-1.379027 0.557843,-0.558396 0.870996,-1.050526 1.074764,-1.689026 0.15506,-0.485874 0.199622,-0.833185 0.196947,-1.534892 -0.01424,-3.7323 -1.362603,-6.963833 -4.007982,-9.60567 -1.96043,-1.957807 -4.318524,-3.354262 -6.885495,-4.077567 -1.398189,-0.393973 -3.030081,-0.60964 -4.613732,-0.60974 -4.416553,-2.78e-4 -8.277972,1.547311 -11.340503,4.545077 -0.607679,0.594828 -1.086315,1.132524 -1.503516,1.689042 -1.4611134,1.949022 -2.2849364,4.035762 -2.5784683,6.53125 -0.079607,0.676782 -0.096397,2.168717 -0.032883,2.921875 0.186473,2.21123 0.4953501,3.679306 1.2204627,5.800792 0.2647306,0.774535 0.2642216,0.765237 0.052463,0.956548 -0.226968,0.205052 -0.5105458,0.224493 -0.7107343,0.04872 C 9.0641188,37.399291 9.0244721,37.311145 8.8779678,36.864916 7.8069436,33.602751 7.3952675,30.245825 7.7333351,27.53125 8.0983696,24.600139 9.2447048,22.061996 11.24784,19.749657 c 0.689885,-0.796377 1.892489,-1.913007 2.78341,-2.584425 3.445796,-2.59683 7.631831,-3.691478 12.156028,-3.178801 3.814471,0.432251 7.105362,2.009511 9.898083,4.743957 1.813984,1.776133 3.066192,3.760315 3.786176,5.999369 0.466522,1.450817 0.687785,2.890695 0.689813,4.488993 0.001,0.82262 -0.0054,0.938708 -0.07014,1.257981 -0.216309,1.067242 -0.688318,1.939739 -1.475203,2.72686 -0.842901,0.843158 -1.804649,1.363716 -2.976358,1.610989 -0.468697,0.09891 -1.47062,0.138892 -1.9799,0.079 -1.307872,-0.153799 -2.342621,-0.610696 -3.356446,-1.48205 -0.816685,-0.701918 -1.429723,-1.669235 -1.668981,-2.6335 -0.111107,-0.447789 -0.142528,-0.698257 -0.175784,-1.401234 -0.03378,-0.713992 -0.107746,-1.107832 -0.298134,-1.587386 -0.472544,-1.190248 -1.586951,-2.215585 -2.875657,-2.645812 -0.581761,-0.194218 -0.863697,-0.234601 -1.637874,-0.234601 -0.61327,0 -0.745058,0.009 -1.03125,0.07081 -0.684025,0.14762 -1.213809,0.368955 -1.76516,0.737455 -1.129003,0.754578 -1.782714,1.722193 -2.006661,2.970234 -0.06069,0.338247 -0.06606,1.36145 -0.01065,2.03125 0.247841,2.995966 1.283151,5.431847 3.194327,7.515625 1.948919,2.124931 4.352366,3.656047 7.244394,4.615045 0.736809,0.244326 0.841323,0.297225 0.901881,0.456479 0.103753,0.27285 -0.10483,0.682338 -0.344069,0.675471 -0.05758,-0.0017 -0.357812,-0.07655 -0.667187,-0.166439 z"
     id="path9624"
     transform="matrix(20,0,0,20,0,-960)" />
  <path
     style="fill:#fbb739;fill-opacity:1;stroke-width:0.00078125"
     d="M 11.938351,7.9169609 C 11.709181,7.7366966 11.616324,7.4842369 11.706442,7.28645 11.760398,7.1680291 12.598777,6.7252904 13.65625,6.2567773 16.440359,5.0232793 19.195276,4.3282757 22.3125,4.073 c 0.643611,-0.052707 2.861131,-0.052865 3.515625,-2.507e-4 3.415321,0.2745535 6.518867,1.0971678 9.683198,2.5665923 0.852363,0.395813 1.032125,0.4944018 1.100629,0.6036296 0.122749,0.1957185 0.01205,0.4865507 -0.247961,0.6514438 -0.07802,0.049478 -0.183178,0.08996 -0.233686,0.08996 -0.05051,0 -0.395803,-0.1393134 -0.767319,-0.309585 C 32.197434,6.2239704 29.262677,5.4116874 26.140625,5.1222223 25.408577,5.0543495 23.387534,5.0278146 22.598847,5.0757211 18.974296,5.2958838 15.718064,6.1814338 12.601849,7.7944587 12.197065,8.0039844 12.077133,8.0261275 11.938351,7.9169609 Z"
     id="path10352"
     transform="matrix(20,0,0,20,0,-960)" />
  <path
     style="fill:#fbb739;fill-opacity:1;stroke-width:0.00078125"
     d="m 33.40625,39.701714 c -2.757235,-0.229906 -5.07413,-1.304032 -7.034949,-3.261444 -1.088147,-1.086256 -1.752628,-2.104208 -2.255879,-3.455895 -0.360638,-0.96864 -0.601658,-2.33136 -0.599111,-3.387351 0.0011,-0.472947 0.145885,-0.674915 0.483689,-0.674915 0.333475,0 0.482524,0.203162 0.483689,0.65929 9.94e-4,0.389641 0.05551,1.01683 0.127037,1.461568 0.138622,0.861894 0.377954,1.61295 0.763356,2.395509 0.437426,0.888194 0.908856,1.538209 1.654572,2.28135 1.334411,1.329802 3.005228,2.295532 4.721346,2.728931 0.863077,0.217966 1.543382,0.298393 2.53125,0.299247 0.778725,6.72e-4 1.067973,-0.02068 1.916209,-0.141445 0.246103,-0.03504 0.487109,-0.055 0.53557,-0.04435 0.120832,0.02654 0.307172,0.220768 0.350479,0.365316 0.04697,0.156771 -0.0061,0.342154 -0.11913,0.416221 -0.107622,0.07052 -0.817059,0.248155 -1.244598,0.311638 -0.407276,0.06047 -1.807604,0.08852 -2.31353,0.04633 z"
     id="path11080"
     transform="matrix(20,0,0,20,0,-960)" />
  <path
     style="fill:#fbb739;fill-opacity:1;stroke-width:9.76563e-05"
     d=""
     id="path11084"
     transform="matrix(20,0,0,20,0,-960)" />
  <path
     style="fill:#ffffff;fill-opacity:1;stroke-width:0.0000976563"
     d="m 34.048828,33.907739 c -0.198335,-0.01991 -0.345791,-0.04821 -0.568686,-0.109153 -0.138584,-0.03789 -0.360064,-0.107466 -0.355771,-0.111759 9.98e-4,-9.98e-4 0.03583,0.009 0.07739,0.02219 0.290877,0.09237 0.544092,0.149145 0.878314,0.196949 0.0418,0.006 0.02189,0.0071 -0.03125,0.0018 z"
     id="path11086"
     transform="matrix(20,0,0,20,0,-960)" />
  <path
     style="fill:#ffffff;fill-opacity:1;stroke-width:9.76563e-05"
     d=""
     id="path11088"
     transform="matrix(20,0,0,20,0,-960)" />
  <path
     style="fill:#ffffff;fill-opacity:1;stroke-width:9.76563e-05"
     d=""
     id="path11090"
     transform="matrix(20,0,0,20,0,-960)" />
  <path
     style="fill:#ffffff;fill-opacity:1;stroke-width:9.76563e-05"
     d=""
     id="path11092"
     transform="matrix(20,0,0,20,0,-960)" />
  <path
     style="fill:#ffffff;fill-opacity:1;stroke-width:9.76563e-05"
     d=""
     id="path11094"
     transform="matrix(20,0,0,20,0,-960)" />
</svg>
